<svg id="visual" viewBox="0 0 960 540" width="960" height="540" xmlns="http://www.w3.org/2000/svg" xmlns:xlink="http://www.w3.org/1999/xlink" version="1.1"><rect x="0" y="0" width="960" height="540" fill="#031c25"></rect><path d="M0 285L137 285L137 326L274 326L274 327L411 327L411 333L549 333L549 306L686 306L686 344L823 344L823 294L960 294L960 291L960 541L960 541L823 541L823 541L686 541L686 541L549 541L549 541L411 541L411 541L274 541L274 541L137 541L137 541L0 541Z" fill="#083b4c"></path><path d="M0 346L137 346L137 379L274 379L274 350L411 350L411 327L549 327L549 384L686 384L686 329L823 329L823 314L960 314L960 328L960 541L960 541L823 541L823 541L686 541L686 541L549 541L549 541L411 541L411 541L274 541L274 541L137 541L137 541L0 541Z" fill="#0a495f"></path><path d="M0 441L137 441L137 464L274 464L274 482L411 482L411 413L549 413L549 424L686 424L686 490L823 490L823 415L960 415L960 434L960 541L960 541L823 541L823 541L686 541L686 541L549 541L549 541L411 541L411 541L274 541L274 541L137 541L137 541L0 541Z" fill="#0c5872"></path></svg>